<svg id="Layer_1" data-name="Layer 1" xmlns="http://www.w3.org/2000/svg" viewBox="0 0 417.2 217.3"><defs><style>.cls-1{fill:#010101}</style></defs><path class="cls-1" d="M162.3 13l55.4 96a.4.4 0 00.6 0l55.4-96a.4.4 0 00-.3-.5H162.6a.4.4 0 00-.3.6zm10 5h91.4a.4.4 0 01.4.6l-22 38a.4.4 0 01-.4.2h-13.3a.4.4 0 00-.4.2l-2.8 4.9a.4.4 0 00.4.5H238a.4.4 0 01.4.6l-5 8.4a.4.4 0 01-.2.2h-13.5a.4.4 0 00-.3.2l-2.8 4.8a.4.4 0 00.3.6h12.6a.4.4 0 01.3.6l-11.6 20.1a.4.4 0 01-.6 0l-45.8-79.2a.4.4 0 01.4-.6z" transform="translate(-9.4 -12.5)"/><path class="cls-1" d="M236.8 47.5L248 28a.4.4 0 00-.3-.6h-59.6a.4.4 0 00-.3.6L209 64.7a.4.4 0 00.7 0l9.7-16.8a.4.4 0 01.3-.2h16.7a.3.3 0 00.3-.2zm-27.7 6l-11.5-20a.4.4 0 01.3-.6H238a.4.4 0 01.4.6l-5 8.4a.4.4 0 01-.2.2h-16.7a.4.4 0 00-.3.2l-6.5 11.2a.4.4 0 01-.7 0zM344.1 138.3l.1.1a.9.9 0 010 .4 6.5 6.5 0 01-1 1.4l-4.6 1.4a8.4 8.4 0 00-3.4 1.8 1.7 1.7 0 00-.4 2 2 2 0 001.4 1 6.2 6.2 0 003.8-.6 14.6 14.6 0 004.7-3l2.1-.5 4.1-1-.1.3a2.8 2.8 0 000 2.7 3 3 0 002.6 1q3.4 0 11.4-5a12.2 12.2 0 001.4-1l.7-.7.2-.1-.4 1.6-.3 1.4a3.8 3.8 0 00.2 2c.6 1.3 1.9 1.5 3.7.6l12.5-6-1 1.6a4.2 4.2 0 00-.6 2.5 2 2 0 001.4 1.4q2.8 1 16.7-6.3l-.8 1.3a4.1 4.1 0 00-.5 2.5 2 2 0 001.3 1.5q3.2 1 21.3-8.7a1.3 1.3 0 00.7-1 1.4 1.4 0 00-.1-1 1.5 1.5 0 00-1-.8 1.4 1.4 0 00-1 .1q-17 9.2-18.9 8.6a5.8 5.8 0 01.7-.8l2.3-2.5 3-3.4 9.7-10.7q5.1-5.6 10.2-10.7a1.5 1.5 0 00.4-1 1.6 1.6 0 00-.4-1 1.3 1.3 0 00-1-.4 1.6 1.6 0 00-1.1.4q-5.3 5.3-10.3 10.8l-9.7 10.7a9.5 9.5 0 01-1.7 1.1q-16.9 9.2-18.8 8.6a5.8 5.8 0 01.6-.8l2.4-2.5 3-3.4 9.7-10.7q5.1-5.6 10.2-10.7a1.4 1.4 0 00.4-1 1.6 1.6 0 00-.4-1 1.3 1.3 0 00-1-.5 1.6 1.6 0 00-1.1.5Q402 116 397 121.5l-9.7 10.8a9 9 0 01-1.5 1.1l-16.4 8v-.5c.6-1.8.6-3 .2-3.8-.6-1-1.6-1.3-3.1-1a1.6 1.6 0 00-.5-.3 8.1 8.1 0 00-4.2-1.1 12.2 12.2 0 00-2.2.2 8.7 8.7 0 00-1 .2 9 9 0 00-1 .4 13.8 13.8 0 00-2.1 1.1l-1 .5a37.7 37.7 0 01-3.8 1.3l-3.6 1a3.4 3.4 0 00-.1-2 3 3 0 00-2.2-2q-2.9-.6-8 2.2l19.5-21.6a1.4 1.4 0 00.4-1 1.3 1.3 0 00-.5-1 1.5 1.5 0 00-1-.4 1.4 1.4 0 00-1 .4L334 136.3a4.5 4.5 0 00-.6.2c-3.3 1.8-7.1 3.6-11.3 5.5l-.5.2q-6.9 3-7.5 1.5a8.1 8.1 0 01-.1-2.6c.1-1.8 0-3-.5-3.7a2 2 0 00-1.5-.9 6.3 6.3 0 00-2.9.6 30.1 30.1 0 00-4.6 2.5l.2-.3a1.7 1.7 0 00.4-1 1.4 1.4 0 00-.4-1 1.5 1.5 0 00-1.1-.4 1.4 1.4 0 00-1 .4l-.9.8a3.5 3.5 0 01-.5.4l-11.7 5.6c-3.1 1.6-5 2.2-5.6 2-.2 0 .7-1.6 2.6-4.4a1.3 1.3 0 00.2-1.1 1.5 1.5 0 00-.6-1 2.7 2.7 0 00-1.9 0 136.8 136.8 0 01-18.8 3.4l-.3.1a70.9 70.9 0 006.3-6.8 54.3 54.3 0 006.6-10 25.7 25.7 0 002.8-8.4 7.3 7.3 0 00-1.1-5.2 5.4 5.4 0 00-5-1.8q-6.3.3-18.5 9.6c-2 1.5-4 3.2-6 5q5.3-7.3 10-14.6a1.3 1.3 0 00.1-1 1.4 1.4 0 00-.6-1 1.4 1.4 0 00-1.2-.2 1.4 1.4 0 00-.9.7l-6.2 9.4q-3.2 4.7-7 9.2l-6.7 8.4q-3.1 3.8-7.6 8.5l-7.2 8-7.8 8.2-4.5 4.8a1.5 1.5 0 00-.4 1 1.4 1.4 0 00.5 1 1.5 1.5 0 001 .5 1.4 1.4 0 001-.5l.1-.1q4-4 12.2-12.8l6.4-7q2-2.3 6.2-6.5 4.1-4.3 7-7t6.4-5.9q3.7-3.2 7-5.8 11.3-8.6 16.9-9a2.8 2.8 0 012.4.7 4.5 4.5 0 01.5 3.1 21.5 21.5 0 01-2.6 7.7 49.8 49.8 0 01-6.1 9 61.7 61.7 0 01-8.6 8.8l-.5.4q-4.2.4-9 .5a24.7 24.7 0 00-7.4 1.2 10.4 10.4 0 00-4.3 2.6 3.8 3.8 0 00-1 3.6 3.9 3.9 0 002.6 2.6 9.1 9.1 0 003 .4 15.5 15.5 0 004-.6 27.3 27.3 0 005-2 56.1 56.1 0 008.2-5.3l4.6-.5a135.3 135.3 0 0016.6-3c-1.6 3.1-1.5 5 .5 5.8q2 .8 8-2l6-3a16.5 16.5 0 00-1 1.6c-.8 1.2-1 2-.4 2.5a1.3 1.3 0 00.4.3 1.2 1.2 0 00.6 0 3.9 3.9 0 00.5 0 3.2 3.2 0 00.6-.3l.7-.4c.2 0 .5-.3.8-.5l.8-.6 1-.6 1.4-1.1c5.6-4 8.6-5.9 8.8-5.5a4.4 4.4 0 010 1.7 8.1 8.1 0 00.3 4q1.9 4.2 11.4 0l.5-.2 5.8-2.6a16 16 0 00-1 1.4c-.8 1.2-.9 2-.4 2.5a1.4 1.4 0 00.9.3 1.8 1.8 0 001-.3 36.8 36.8 0 003.5-2.2q3.8-2.8 4.9-3.4 4.3-2.5 6.1-2m-92.6 11a23.4 23.4 0 01-4.1 1.6 13 13 0 01-3.2.6 6.8 6.8 0 01-2.3-.3c-.5-.2-.7-.4-.8-.6a1.2 1.2 0 01.4-.8 7.6 7.6 0 013.4-1.9 24.5 24.5 0 016.3-1l4.4-.1a48 48 0 01-4 2.3zm102.2-7a8.6 8.6 0 012.2-2.4l1-.7a8.3 8.3 0 012.7-1.3 10.2 10.2 0 011-.3 5.3 5.3 0 012.7 0q-6.7 4.2-9.5 4.6zM318 189.1a1.4 1.4 0 00-1.1 0l-5.1 2.5-6.7 3.2a34 34 0 01-7.5 2.6 10.1 10.1 0 01-4.9 0 1.5 1.5 0 01-.6-.3l1-.2a15.5 15.5 0 002.6-.5q4-.8 5.1-2.4a2.2 2.2 0 00-.3-3.1 4.1 4.1 0 00-2.4-1.2 12 12 0 00-2.5 0 7.8 7.8 0 00-2.6.7l-1.4.8a102.8 102.8 0 01-10 4.9l-.6.2q-6.8 3-7.5 1.5a8.3 8.3 0 010-2.6c0-1.8 0-3-.6-3.7a2 2 0 00-1.5-.9 6.1 6.1 0 00-2.8.6 29.4 29.4 0 00-4.6 2.5l.2-.3a1.6 1.6 0 00.4-1 1.3 1.3 0 00-.5-1 1.5 1.5 0 00-1.1-.4 1.4 1.4 0 00-1 .4 7.2 7.2 0 01-1.7 1.4l-11.3 5.4c-3.2 1.6-5.1 2.3-5.7 2q-.2-.1 2.6-4.4a1.4 1.4 0 00.3-1 1.4 1.4 0 00-.7-1 2.3 2.3 0 00-2-.1c-3 1.3-5.7 2.7-8 3.8l-8.4 4.3-4.1 2.4a19.9 19.9 0 001.3-3l.3-1.5a3.7 3.7 0 000-1.4 2.3 2.3 0 00-.6-1.2 3 3 0 00-2.8-.4 2 2 0 00-.4-.4 8.3 8.3 0 00-4.3-1.2 12.4 12.4 0 00-4.1.9 15.6 15.6 0 00-3 1.5c-2.2 1.1-4.6 2.3-7.2 3.4l-.5.2q-6.8 3-7.5 1.5a8.2 8.2 0 01-.1-2.6c.2-1.7 0-3-.5-3.6a2 2 0 00-1.5-1 6.2 6.2 0 00-2.9.7 30.1 30.1 0 00-4.5 2.4l.2-.2a1.6 1.6 0 00.3-1.1 1.3 1.3 0 00-.4-1 1.5 1.5 0 00-1.1-.4 1.4 1.4 0 00-1 .4l-2 1.3-8.5 4.5-10.1 5.4a687 687 0 01-21.8 10.5 78.2 78.2 0 01-8.7 3.2q-6.7 2-9.2-.2-2-1.6-1.2-5.8a29 29 0 014.7-10 52.3 52.3 0 015.4-6.5 51.5 51.5 0 017-6 55.6 55.6 0 018.4-5 43.8 43.8 0 019.5-3.1 42.6 42.6 0 0110.5-1l1.2.2a1.7 1.7 0 001.1-.4 1.3 1.3 0 00.5-1 1.5 1.5 0 00-.4-1 1.4 1.4 0 00-1-.6H167q-6.5-.5-8-2.6a1.7 1.7 0 01-.3-1.8 7.2 7.2 0 011.8-2.7 16 16 0 015.9-3.4 12.2 12.2 0 016.4-.7 7.3 7.3 0 015 3.4c1 1.8 1.5 4.3 1.4 7.6a1.5 1.5 0 00.4 1 1.5 1.5 0 001 .5 1.5 1.5 0 001-.4 1.6 1.6 0 00.5-1 16.1 16.1 0 00-1.9-9.3 10.2 10.2 0 00-6.8-4.7 14.6 14.6 0 00-8 .8 19.7 19.7 0 00-7 4 10 10 0 00-2.6 4 4.9 4.9 0 00.7 4.6 8.4 8.4 0 001.4 1.3 45.8 45.8 0 00-10.8 3 50.5 50.5 0 00-9.7 5.4 62.1 62.1 0 00-7.8 6.5 51.2 51.2 0 00-6.1 7.2 30 30 0 00-5.2 11.1q-1.1 5.8 2.1 8.6 3.7 3.3 12 .9a87 87 0 009-3.3q5.2-2.2 11.5-5.3t10.5-5.4l10.2-5.4 3.4-1.8a18.6 18.6 0 00-1.1 1.6c-.7 1.2-.8 2-.4 2.5a1.5 1.5 0 00.5.2 1 1 0 00.5 0 4.2 4.2 0 00.5 0 3.2 3.2 0 00.7-.3l.7-.3.7-.5.9-.6 1-.7 1.4-1c5.6-4 8.5-6 8.8-5.6a4.4 4.4 0 010 1.8 8.1 8.1 0 00.3 4q1.8 4.2 11.4 0l.5-.2 1.8-.8a2.4 2.4 0 00.3 2 3 3 0 002.6 1q3.4-.2 11.3-5c.6-.3 1-.6 1.4-1l.9-.5.2-.2a.2.2 0 010 .2 36.7 36.7 0 01-4.6 8.6 88.4 88.4 0 00-9.6 8 62.5 62.5 0 00-6.6 7.3 13 13 0 00-2.2 3.8c-.4 1.4-.3 2.3.3 2.6s1.5.2 2.9-.6q2.5-1.3 8.2-7.3a80 80 0 008.2-10.2l1-1.5a84.9 84.9 0 019-5.6q2.8-1.6 8.4-4.4l4.5-2.2q-1.8 4 .8 5c1.4.6 4.1-.1 8-2l6.1-3a16.5 16.5 0 00-1 1.7c-.8 1.2-1 2-.4 2.5a1.3 1.3 0 00.4.2 1 1 0 00.5 0h.5a3 3 0 00.7-.3l.7-.3a7.9 7.9 0 00.8-.6l.8-.5 1-.7 1.4-1.1q8.4-6 8.8-5.5a4.3 4.3 0 010 1.7 8.1 8.1 0 00.3 4q1.8 4.3 11.4 0l.5-.1 6.1-2.9a4.4 4.4 0 00.1 1.2 3.8 3.8 0 001.3 2.2 5.1 5.1 0 001.7 1 13 13 0 006.2 0 37.3 37.3 0 008.3-2.7l6.7-3.3 5-2.5a1.4 1.4 0 00.7-2 1.4 1.4 0 00-.7-.8zm-109.7 13.7a8.6 8.6 0 012.1-2.3l.7-.5a10.6 10.6 0 013-1.5 11.3 11.3 0 011.1-.3 5.4 5.4 0 012.6 0q-6.7 4.3-9.5 4.6zm-.2 17l-2.1 2 3-3zm86.5-26.9l.6-.2a4.5 4.5 0 012.3 0h.4a11.5 11.5 0 01-2.9 1l-2.1.3.2-.2a4.7 4.7 0 011.5-.9z" transform="translate(-9.4 -12.5)"/><circle class="cls-1" cx="238.9" cy="174.5" r="2.5"/><circle class="cls-1" cx="279.4" cy="120.4" r="2.5"/><circle class="cls-1" cx="56.5" cy="134.1" r="2.5"/><path d="M166.4 151.1l3-3.4 9.7-10.7q5.2-5.6 10.2-10.7a1.4 1.4 0 00.4-1 1.6 1.6 0 00-.4-1 1.3 1.3 0 00-1-.4 1.6 1.6 0 00-1 .4q-5.4 5.3-10.3 10.7l-9.7 10.8-.7.8a2.9 2.9 0 00-.8.3l-16.4 7.9v-.5c.5-1.7.6-3 .2-3.7v-.1c-.6-1-1.6-1.3-3.1-.9a2 2 0 00-.4-.3 8.1 8.1 0 00-4.3-1.2 15.9 15.9 0 00-2.5.3 9.7 9.7 0 00-1.7.6 13.9 13.9 0 00-2.7 1.4l-7.5 3.6-.4.2q-5 2.2-7.1 1.7a1.4 1.4 0 01-.6-.2.5.5 0 01-.1-.5 4.5 4.5 0 011.2-2.1 15.9 15.9 0 001.8-2c.7-1 1-1.7.8-2s-.8-.6-1.9-.5a1.8 1.8 0 00-1.1.5 46 46 0 00-3 2.5 31.2 31.2 0 01-6 4.4 11.6 11.6 0 01-4.5 1.6h-.2a3 3 0 010-.3l.1-.3v-.1a19.8 19.8 0 013.3-5 1.4 1.4 0 00.3-1.1 1.5 1.5 0 00-.5-1 1.4 1.4 0 00-1.1-.3 1.5 1.5 0 00-1 .5 3.3 3.3 0 01-.5.4.4.4 0 01-.1 0 132 132 0 01-12 5.7 81.2 81.2 0 01-7.7 2.7v-.3a3.8 3.8 0 00-.8-2.1 6.1 6.1 0 00-3.3-2 3.7 3.7 0 01-1.5-.5 12 12 0 015.1-.6 1.3 1.3 0 001.6-1.2 1.4 1.4 0 00-1.2-1.6 10.8 10.8 0 00-5.4.3h-.3a27.7 27.7 0 00-3 1.4l-11.6 5.6c-3.2 1.6-5.1 2.2-5.7 2q-.2-.2 2.6-4.4a1.3 1.3 0 00.3-1.1 1.5 1.5 0 00-.7-1 2.2 2.2 0 00-2 0 48.1 48.1 0 01-13.9 5.3q-5.6 1-7.7-.8l-.3-.4L66 135q5.4-4.4 8.6-7.8a29 29 0 004.3-5q1-1.8.4-2.6a1.4 1.4 0 00-.8-.5 1.5 1.5 0 00-1 .2 21.9 21.9 0 00-5.8 2.2 74.7 74.7 0 00-8.2 4.9q-5.9 4-11.6 8.6a90.2 90.2 0 00-9.7 9q-6.8 7.5-6.4 12.3l-21 17.6q5.4-11.7 11.4-21.8a202.6 202.6 0 0118.4-26.4 1.7 1.7 0 00.3-1.2 1.3 1.3 0 00-.5-1 1.5 1.5 0 00-1-.3 1.4 1.4 0 00-1 .5 214.7 214.7 0 00-18.8 26.9 265 265 0 00-14 28 1.3 1.3 0 000 1.1 1.4 1.4 0 00.8.8 1.5 1.5 0 001.5-.2l25.1-21 .6.6q3.1 2.8 10.2 1.5a46 46 0 0011.2-3.8c-1.1 2.6-.8 4.2.9 4.8q2.1.8 8-2l10.8-5.2a3 3 0 00.3.4 6.2 6.2 0 003.2 1.7 2.9 2.9 0 011.8.8.7.7 0 01.1.5 1.1 1.1 0 01-.2.3 3 3 0 01-2 1.1c-1.2.2-2.9.2-3.6.2-1 0-1.6.5-1.7 1a1.3 1.3 0 001 1.4 18.3 18.3 0 005-.1 55.8 55.8 0 0013.2-3.7l8-3.6-.2.6a4.2 4.2 0 00-.3 2.4 2.5 2.5 0 001.5 1.9 4 4 0 001.6.3 12.6 12.6 0 006-1.9 36 36 0 004-2.5 3.2 3.2 0 00.5 1.4 3.6 3.6 0 002.5 1.4c2 .4 5-.3 8.8-2l.4-.2 1.9-.8a2.5 2.5 0 00.2 2 3 3 0 002.7 1q3.4 0 11.3-5a12 12 0 001.4-1l.8-.7c.2 0 .1-.1.1 0l-.6 2.5-.1.9a2.4 2.4 0 00.2 1.5c.6 1.3 2 1.5 3.7.7l12.5-6.1a18.4 18.4 0 00-1 1.6 4.2 4.2 0 00-.5 2.5 2 2 0 001.4 1.4q3.1 1.2 21.2-8.7a1.3 1.3 0 00.7-.8 1.4 1.4 0 00-.1-1.2 1.5 1.5 0 00-.9-.7 1.4 1.4 0 00-1.1.1q-17 9.2-18.9 8.6a7.2 7.2 0 01.7-.8zm-122-5a85.3 85.3 0 019.3-8.7q5.6-4.6 11.4-8.5l8.3-5.4c2.3-1.4 3.5-2 3.6-1.8s-4.2 4-13 11.1l-25 20.9q1.1-3 5.4-7.6zm89.2 9.7a8.6 8.6 0 012.1-2.3l.6-.5a9.8 9.8 0 013.1-1.5l1.1-.3a5.6 5.6 0 012.6 0q-6.7 4.2-9.5 4.6z" transform="translate(-9.4 -12.5)"/></svg>