<svg version="1.1" id="Layer_1" xmlns="http://www.w3.org/2000/svg" xmlns:xlink="http://www.w3.org/1999/xlink" x="0px" y="0px" width="43.38" height="37.61" xml:space="preserve"><style type="text/css">.st0{fill:#DDDDDD;}
</style><path class="st0" d="M0.1,1.7L19.9,36c0.2,0.3,0.6,0.3,0.8,0L30.5,19c0.8-1.5,2.4-2.3,4.1-2.3h0.9c2.8,0,5.4-1.5,6.8-3.9l0,0
	C45.3,7.5,41.6,1,35.6,1L0.5,1C0.1,1-0.1,1.4,0.1,1.7z M35.6,14.4l-10,0c-0.1,0-0.2,0-0.2,0.1l-1,1.8c-0.1,0.2,0,0.4,0.2,0.4h4.3
	c0.2,0,0.3,0.2,0.2,0.4l-2.2,3.9c-0.1,0.1-0.2,0.2-0.4,0.2h-4.8c-0.1,0-0.2,0-0.2,0.1l-1,1.8c-0.1,0.2,0,0.4,0.2,0.4H25
	c0.2,0,0.3,0.2,0.2,0.4l-4.8,8.2c-0.1,0.2-0.3,0.2-0.4,0L3.7,3.6c-0.1-0.2,0-0.4,0.2-0.4h31.6c4.3,0,7,4.7,4.9,8.4l0,0
	C39.4,13.4,37.6,14.4,35.6,14.4z"/><path class="st0" d="M11.5,8.1l6,10.5c0.1,0.2,0.3,0.2,0.4,0l3.6-6.2c0.8-1.5,2.4-2.3,4.1-2.3l10,0c0.4,0,0.8-0.2,1-0.6v0
	c0.4-0.7-0.1-1.7-1-1.7l-23.9,0C11.5,7.7,11.4,7.9,11.5,8.1z M19.8,10.8c-0.5,0.8-1.9,3.3-1.9,3.3c-0.1,0.2-0.3,0.2-0.4,0l-2.2-3.8
	c-0.1-0.2,0-0.4,0.2-0.4h5C20.2,10.2,19.9,10.5,19.8,10.8z"/>
</svg>
