<svg version="1.1" id="Layer_1" xmlns="http://www.w3.org/2000/svg" x="0" y="0" width="43.38" height="37.61" xml:space="preserve"><style>.st0{fill:#ddd}</style><path class="st0" d="M43.21 0H.17C.02 0-.04.11.03.24l21.52 37.28c.08.13.2.13.28 0L43.35.24c.08-.13.01-.24-.14-.24zm-3.62 2.41l-8.43 14.6a.54.54 0 01-.41.24h-4.83a.52.52 0 00-.41.24l-.98 1.7c-.08.13-.01.24.14.24h4.83c.15 0 .21.11.14.24l-1.79 3.1a.6.6 0 01-.42.23H22.6a.52.52 0 00-.41.24l-.98 1.7c-.08.13-.01.24.14.24h4.83c.15 0 .21.11.14.24l-4.48 7.76c-.08.13-.2.13-.28 0L3.8 2.41c-.08-.13-.02-.24.13-.24h35.51c.16 0 .22.11.15.24z"/><path class="st0" d="M33.26 5.75H10.13c-.15 0-.21.11-.14.24l8.24 14.28c.08.13.2.13.28 0l3.67-6.36a.54.54 0 01.41-.24h6.09c.15 0 .34-.11.41-.24l4.3-7.44c.08-.13.02-.24-.13-.24zm-3.63 2.41l-1.79 3.1a.54.54 0 01-.41.24h-6.09a.52.52 0 00-.41.24l-2.42 4.18c-.08.13-.2.13-.28 0l-4.48-7.76c-.08-.13-.01-.24.14-.24h15.6c.15 0 .21.11.14.24z"/></svg>