# Visual Pinball table OBJ file
mtllib PrimitiveAnimated_00002.mtl
# Visual Pinball OBJ file
# numVerts: 24 numFaces: 36
o AnimatedPrimitive
v 50.000000 50.000000 50.000000
v -50.000000 50.000000 50.000000
v -50.000000 50.000000 -50.000000
v 50.000000 50.000000 -50.000000
v 50.000000 -50.000000 -50.000000
v 50.000000 50.000000 -50.000000
v -50.000000 50.000000 -50.000000
v -50.000000 -50.000000 -50.000000
v -50.000000 -50.000000 -50.000000
v -50.000000 50.000000 -50.000000
v -50.000000 50.000000 50.000000
v -50.000000 -50.000000 50.000000
v -50.000000 -50.000000 50.000000
v 50.000000 -50.000000 50.000000
v 50.000000 -50.000000 -50.000000
v -50.000000 -50.000000 -50.000000
v 50.000000 -50.000000 50.000000
v 50.000000 50.000000 50.000000
v 50.000000 50.000000 -50.000000
v 50.000000 -50.000000 -50.000000
v -50.000000 -50.000000 50.000000
v -50.000000 50.000000 50.000000
v 50.000000 50.000000 50.000000
v 50.000000 -50.000000 50.000000
vt 0.375000 1.000000
vt 0.625000 1.000000
vt 0.625000 0.750000
vt 0.375000 0.750000
vt 0.375000 0.750000
vt 0.625000 0.750000
vt 0.625000 0.500000
vt 0.375000 0.500000
vt 0.375000 0.500000
vt 0.625000 0.500000
vt 0.625000 0.250000
vt 0.375000 0.250000
vt 0.375000 0.250000
vt 0.625000 0.250000
vt 0.625000 0.000000
vt 0.375000 0.000000
vt 0.125000 0.500000
vt 0.375000 0.500000
vt 0.375000 0.250000
vt 0.125000 0.250000
vt 0.625000 0.500000
vt 0.875000 0.500000
vt 0.875000 0.250000
vt 0.625000 0.250000
vn 0.000000 1.000000 -0.000000
vn 0.000000 1.000000 -0.000000
vn 0.000000 1.000000 -0.000000
vn 0.000000 1.000000 -0.000000
vn 0.000000 0.000000 -1.000000
vn 0.000000 0.000000 -1.000000
vn 0.000000 0.000000 -1.000000
vn 0.000000 0.000000 -1.000000
vn -1.000000 0.000000 -0.000000
vn -1.000000 0.000000 -0.000000
vn -1.000000 0.000000 -0.000000
vn -1.000000 0.000000 -0.000000
vn 0.000000 -1.000000 -0.000000
vn 0.000000 -1.000000 -0.000000
vn 0.000000 -1.000000 -0.000000
vn 0.000000 -1.000000 -0.000000
vn 1.000000 0.000000 -0.000000
vn 1.000000 0.000000 -0.000000
vn 1.000000 0.000000 -0.000000
vn 1.000000 0.000000 -0.000000
vn 0.000000 0.000000 1.000000
vn 0.000000 0.000000 1.000000
vn 0.000000 0.000000 1.000000
vn 0.000000 0.000000 1.000000
f 3/3/3 2/2/2 1/1/1
f 4/4/4 3/3/3 1/1/1
f 7/7/7 6/6/6 5/5/5
f 8/8/8 7/7/7 5/5/5
f 11/11/11 10/10/10 9/9/9
f 12/12/12 11/11/11 9/9/9
f 15/15/15 14/14/14 13/13/13
f 16/16/16 15/15/15 13/13/13
f 19/19/19 18/18/18 17/17/17
f 20/20/20 19/19/19 17/17/17
f 23/23/23 22/22/22 21/21/21
f 24/24/24 23/23/23 21/21/21
