<svg xmlns="http://www.w3.org/2000/svg" width="436" height="177"><path d="M173.64 61.49l6.74 21.19h.26l6.76-21.19h6.54l-9.62 27.89h-7.6l-9.63-27.89h6.55zM198.75 65.77c-.85 0-1.59-.29-2.21-.86a2.75 2.75 0 01-.93-2.08c0-.81.31-1.5.93-2.07a3.15 3.15 0 012.21-.86c.86 0 1.6.29 2.22.86.62.57.93 1.26.93 2.07 0 .81-.31 1.5-.93 2.08-.62.57-1.36.86-2.22.86zm-2.92 23.62V68.47h5.8v20.92h-5.8zM222.33 74.43l-5.31.33a3.05 3.05 0 00-1.1-1.73 3.7 3.7 0 00-2.4-.72c-.9 0-1.66.19-2.28.57-.62.38-.93.88-.92 1.5-.01.5.19.92.59 1.27.4.35 1.09.62 2.06.83l3.79.76c4.02.83 6.04 2.71 6.05 5.67 0 1.37-.4 2.57-1.21 3.61s-1.91 1.84-3.3 2.42c-1.4.58-3 .86-4.81.86-2.77 0-4.98-.58-6.62-1.74a6.67 6.67 0 01-2.87-4.73l5.71-.3c.18.85.6 1.5 1.26 1.93.66.44 1.5.65 2.54.65 1.02 0 1.84-.2 2.46-.6s.94-.91.95-1.53c-.03-1.04-.92-1.73-2.68-2.08l-3.62-.72c-4.05-.81-6.07-2.8-6.05-5.98-.01-2.02.8-3.61 2.42-4.77s3.77-1.74 6.45-1.74c2.64 0 4.72.56 6.25 1.67a6.56 6.56 0 012.64 4.57zM238.55 80.48V68.47h5.8v20.92h-5.57v-3.8h-.22a6.16 6.16 0 01-2.35 2.96 6.97 6.97 0 01-4 1.12c-2.11 0-3.81-.7-5.12-2.1-1.3-1.4-1.96-3.33-1.97-5.77V68.47h5.8v12.29c.01 1.24.34 2.21.99 2.93a3.37 3.37 0 002.63 1.08c1.04 0 1.97-.36 2.79-1.09s1.22-1.8 1.22-3.2zM253.6 89.78c-2 0-3.66-.52-4.97-1.56-1.32-1.04-1.97-2.6-1.97-4.67 0-1.56.37-2.79 1.1-3.68a6.45 6.45 0 012.89-1.96c1.19-.41 2.48-.68 3.86-.81a29.3 29.3 0 003.9-.57c.78-.2 1.17-.64 1.17-1.31v-.08c0-.86-.27-1.53-.81-2a3.4 3.4 0 00-2.29-.71c-1.04 0-1.88.23-2.49.68a3.17 3.17 0 00-1.23 1.73l-5.37-.44a7.15 7.15 0 012.98-4.54c1.58-1.12 3.63-1.67 6.14-1.67 1.55 0 3 .25 4.36.74a7.34 7.34 0 013.28 2.29 6.3 6.3 0 011.25 4.05v14.11h-5.5v-2.9h-.16a6.11 6.11 0 01-2.28 2.38 7.38 7.38 0 01-3.86.92zm1.66-4c1.27 0 2.32-.37 3.13-1.11a3.57 3.57 0 001.23-2.76v-2.22c-.23.16-.58.29-1.06.41s-.99.22-1.53.31l-1.45.22c-1.02.15-1.84.43-2.46.86s-.93 1.05-.93 1.87c0 .8.29 1.4.87 1.81.58.41 1.31.61 2.2.61zM274.35 61.49v27.89h-5.8V61.49h5.8zM285.3 89.39v-27.9h11c2.12 0 3.92.4 5.41 1.21s2.63 1.92 3.41 3.34c.79 1.42 1.18 3.06 1.18 4.91s-.4 3.49-1.2 4.9a8.28 8.28 0 01-3.47 3.31 11.7 11.7 0 01-5.48 1.19h-4.96v9.04h-5.89zm5.9-13.77h4c1.69 0 2.95-.43 3.78-1.3s1.25-1.99 1.25-3.37a4.6 4.6 0 00-1.25-3.36c-.83-.85-2.1-1.27-3.81-1.27h-3.98v9.3zM311.61 65.77c-.85 0-1.59-.29-2.21-.86a2.75 2.75 0 01-.93-2.08c0-.81.31-1.5.93-2.07a3.15 3.15 0 012.21-.86c.86 0 1.6.29 2.22.86.62.57.93 1.26.93 2.07 0 .81-.31 1.5-.93 2.08-.62.57-1.36.86-2.22.86zm-2.92 23.62V68.47h5.8v20.92h-5.8zM323.58 77.29v12.09h-5.8V68.47h5.53v3.69h.25c.47-1.22 1.25-2.18 2.34-2.89s2.4-1.07 3.96-1.07c2.18 0 3.93.7 5.24 2.1 1.32 1.4 1.98 3.33 1.98 5.77v13.32h-5.8V77.1a4.22 4.22 0 00-.98-3 3.54 3.54 0 00-2.74-1.08c-1.17 0-2.12.38-2.85 1.12a4.3 4.3 0 00-1.13 3.15zM340.4 89.39v-27.9h5.8v10.49h.18c.26-.57.63-1.15 1.12-1.73s1.12-1.07 1.91-1.46c.79-.4 1.77-.59 2.93-.59 1.53 0 2.94.4 4.22 1.19a8.34 8.34 0 013.08 3.58 13.57 13.57 0 011.17 5.99c0 2.33-.38 4.3-1.13 5.9a8.44 8.44 0 01-3.05 3.64 7.8 7.8 0 01-4.3 1.23 6.7 6.7 0 01-2.87-.56 5.64 5.64 0 01-1.92-1.41 7.28 7.28 0 01-1.15-1.72h-.26v3.35h-5.73zm5.68-10.46c0 1.86.38 3.36 1.15 4.49s1.85 1.7 3.25 1.7c1.42 0 2.51-.57 3.27-1.72a8.04 8.04 0 001.13-4.46c0-1.82-.38-3.29-1.12-4.42a3.7 3.7 0 00-3.28-1.7c-1.41 0-2.49.55-3.26 1.66-.76 1.09-1.14 2.58-1.14 4.45zM369.28 89.78c-2 0-3.66-.52-4.97-1.56-1.32-1.04-1.97-2.6-1.97-4.67 0-1.56.37-2.79 1.1-3.68a6.45 6.45 0 012.89-1.96c1.19-.41 2.48-.68 3.86-.81a29.3 29.3 0 003.9-.57c.78-.2 1.17-.64 1.17-1.31v-.08c0-.86-.27-1.53-.81-2a3.4 3.4 0 00-2.29-.71c-1.04 0-1.88.23-2.49.68a3.17 3.17 0 00-1.23 1.73l-5.37-.44a7.15 7.15 0 012.98-4.54c1.58-1.12 3.63-1.67 6.14-1.67 1.55 0 3 .25 4.36.74a7.34 7.34 0 013.28 2.29 6.3 6.3 0 011.25 4.05v14.11h-5.5v-2.9h-.16a6.11 6.11 0 01-2.28 2.38 7.4 7.4 0 01-3.86.92zm1.66-4c1.27 0 2.32-.37 3.13-1.11a3.57 3.57 0 001.23-2.76v-2.22c-.23.16-.58.29-1.06.41s-.99.22-1.53.31l-1.45.22c-1.02.15-1.84.43-2.46.86s-.93 1.05-.93 1.87c0 .8.29 1.4.87 1.81.58.41 1.31.61 2.2.61zM390.03 61.49v27.89h-5.8V61.49h5.8zM399.12 61.49v27.89h-5.8V61.49h5.8zM168.6 121.33v-27.9h18.8v4.86h-12.9v6.65h11.93v4.86H174.5v6.66h12.95v4.86H168.6zM196.45 109.23v12.09h-5.8V100.4h5.53v3.69h.25c.47-1.22 1.25-2.18 2.34-2.89s2.4-1.07 3.96-1.07c2.18 0 3.93.7 5.24 2.1 1.32 1.4 1.98 3.33 1.98 5.77v13.32h-5.8v-12.29a4.22 4.22 0 00-.98-3 3.54 3.54 0 00-2.74-1.08c-1.17 0-2.12.38-2.85 1.12a4.34 4.34 0 00-1.13 3.16zM222.58 129.47c-2.82 0-5.03-.55-6.63-1.66a6.61 6.61 0 01-2.93-4.03l5.37-.72c.24.56.7 1.08 1.38 1.55.68.47 1.67.7 2.95.7 1.26 0 2.3-.3 3.13-.9.82-.6 1.23-1.58 1.23-2.96v-3.83h-.25a5.88 5.88 0 01-2.02 2.35 6.6 6.6 0 01-3.95 1.06c-1.57 0-3-.37-4.28-1.1a7.72 7.72 0 01-3.06-3.36 12.7 12.7 0 01-1.14-5.73c0-2.38.39-4.36 1.17-5.94a7.88 7.88 0 017.3-4.75c1.17 0 2.15.2 2.94.59.79.39 1.43.88 1.92 1.46s.86 1.16 1.12 1.73h.22v-3.51h5.76v21.13c0 1.73-.44 3.19-1.31 4.37s-2.08 2.07-3.62 2.67-3.31.88-5.3.88zm.12-12.8c1.4 0 2.48-.52 3.25-1.55.77-1.04 1.15-2.47 1.15-4.32 0-1.83-.38-3.3-1.14-4.4s-1.85-1.65-3.26-1.65c-1.43 0-2.53.56-3.28 1.69s-1.12 2.58-1.12 4.36c0 1.81.38 3.24 1.13 4.29a3.77 3.77 0 003.27 1.58zM239.01 97.71c-.85 0-1.59-.29-2.21-.86a2.75 2.75 0 01-.93-2.08c0-.81.31-1.5.93-2.07a3.15 3.15 0 012.21-.86c.86 0 1.6.29 2.22.86.62.57.93 1.26.93 2.07 0 .81-.31 1.5-.93 2.08-.62.57-1.36.86-2.22.86zm-2.92 23.62V100.4h5.8v20.92h-5.8zM250.99 109.23v12.09h-5.8V100.4h5.53v3.69h.25c.47-1.22 1.25-2.18 2.34-2.89s2.4-1.07 3.96-1.07c2.18 0 3.93.7 5.24 2.1 1.32 1.4 1.98 3.33 1.98 5.77v13.32h-5.8v-12.29a4.22 4.22 0 00-.98-3 3.54 3.54 0 00-2.74-1.08c-1.17 0-2.12.38-2.85 1.12a4.34 4.34 0 00-1.13 3.16zM277.23 121.73c-2.14 0-3.99-.44-5.54-1.31a8.88 8.88 0 01-3.58-3.73 12.36 12.36 0 01-1.25-5.73c0-2.15.42-4.04 1.25-5.67a9.22 9.22 0 013.54-3.8 10.24 10.24 0 015.36-1.36c1.84 0 3.51.39 4.99 1.17a8.54 8.54 0 013.53 3.54 12.14 12.14 0 011.31 5.92v1.59h-14.25v.01c0 1.56.43 2.79 1.28 3.69.85.9 2.01 1.35 3.46 1.35.97 0 1.81-.2 2.52-.61a3.33 3.33 0 001.5-1.81l5.37.35a7.34 7.34 0 01-3.11 4.66c-1.67 1.16-3.8 1.74-6.38 1.74zm-4.65-12.98h8.79a4.11 4.11 0 00-4.28-4.29c-1.29 0-2.35.42-3.17 1.25a4.5 4.5 0 00-1.34 3.04z"/><g><path d="M408.73 176.21H27.05A26.34 26.34 0 01.74 149.9V26.88A26.34 26.34 0 0127.05.57h381.68a26.34 26.34 0 0126.31 26.31V149.9a26.34 26.34 0 01-26.31 26.31zM27.05 5.57A21.33 21.33 0 005.74 26.88V149.9a21.33 21.33 0 0021.31 21.31h381.68a21.33 21.33 0 0021.31-21.31V26.88a21.33 21.33 0 00-21.31-21.31H27.05z"/></g><g><path d="M169.45 29.69H30.55c-.49 0-.69.35-.44.77l69.45 120.29c.24.42.64.42.89 0L169.9 30.46c.24-.42.04-.77-.45-.77zm-11.7 7.79l-27.19 47.1c-.24.42-.85.77-1.33.77h-15.59a1.7 1.7 0 00-1.33.77l-3.16 5.47c-.24.42-.04.77.44.77h15.59c.49 0 .69.35.44.77l-5.77 10c-.24.42-.85.77-1.33.77h-15.59a1.7 1.7 0 00-1.33.77l-3.16 5.47c-.24.42-.04.77.44.77h15.59c.49 0 .69.35.44.77l-14.46 25.04c-.24.42-.64.42-.89 0l-57.3-99.25c-.24-.42-.04-.77.44-.77h114.6c.49.01.69.35.45.78z"/><path d="M137.32 48.25H62.68c-.49 0-.69.35-.44.77l26.6 46.08c.24.42.64.42.89 0l11.85-20.52c.24-.42.85-.77 1.33-.77h19.64a1.7 1.7 0 001.33-.77l13.87-24.02c.26-.43.06-.77-.43-.77zm-11.71 7.78l-5.77 10a1.7 1.7 0 01-1.33.77H98.87a1.7 1.7 0 00-1.33.77l-7.8 13.51c-.24.42-.64.42-.89 0L74.39 56.03c-.24-.42-.04-.77.44-.77h50.34c.49 0 .69.35.44.77z"/></g></svg>